<svg width="16" height="17" viewBox="0 0 16 17" fill="none" xmlns="http://www.w3.org/2000/svg">
    <mask id="path-1-inside-1_7_14082" fill="white">
        <path
            d="M15.1263 12.1354C15.9536 10.5136 16.203 8.65804 15.8333 6.87533C15.4635 5.09261 14.4968 3.48934 13.0927 2.33034C11.6886 1.17134 9.93112 0.525945 8.11064 0.500765C6.29016 0.475585 4.51554 1.07212 3.07992 2.19185C1.6443 3.31157 0.633553 4.88749 0.214642 6.6593C-0.20427 8.4311 -0.00628785 10.2928 0.775885 11.9369C1.55806 13.581 2.87763 14.9091 4.51663 15.7018C6.15564 16.4946 8.01602 16.7045 9.79049 16.2971L9.5142 15.0939C8.01355 15.4385 6.44025 15.2609 5.05417 14.5905C3.66808 13.9201 2.55214 12.7969 1.89067 11.4065C1.22919 10.0161 1.06176 8.44174 1.41603 6.94334C1.7703 5.44495 2.62507 4.11222 3.83916 3.16528C5.05324 2.21835 6.55401 1.71386 8.09357 1.73516C9.63313 1.75645 11.1194 2.30225 12.3068 3.2824C13.4942 4.26255 14.3118 5.61842 14.6245 7.12604C14.9372 8.63365 14.7263 10.2028 14.0266 11.5744L15.1263 12.1354Z" />
    </mask>
    <path
        d="M15.1263 12.1354C15.9536 10.5136 16.203 8.65804 15.8333 6.87533C15.4635 5.09261 14.4968 3.48934 13.0927 2.33034C11.6886 1.17134 9.93112 0.525945 8.11064 0.500765C6.29016 0.475585 4.51554 1.07212 3.07992 2.19185C1.6443 3.31157 0.633553 4.88749 0.214642 6.6593C-0.20427 8.4311 -0.00628785 10.2928 0.775885 11.9369C1.55806 13.581 2.87763 14.9091 4.51663 15.7018C6.15564 16.4946 8.01602 16.7045 9.79049 16.2971L9.5142 15.0939C8.01355 15.4385 6.44025 15.2609 5.05417 14.5905C3.66808 13.9201 2.55214 12.7969 1.89067 11.4065C1.22919 10.0161 1.06176 8.44174 1.41603 6.94334C1.7703 5.44495 2.62507 4.11222 3.83916 3.16528C5.05324 2.21835 6.55401 1.71386 8.09357 1.73516C9.63313 1.75645 11.1194 2.30225 12.3068 3.2824C13.4942 4.26255 14.3118 5.61842 14.6245 7.12604C14.9372 8.63365 14.7263 10.2028 14.0266 11.5744L15.1263 12.1354Z"
        stroke="white" stroke-width="2" mask="url(#path-1-inside-1_7_14082)" />
</svg>